<svg id="svg" version="1.1" width="400" height="400" viewBox="0 0 400 400" xmlns="http://www.w3.org/2000/svg" xmlns:xlink="http://www.w3.org/1999/xlink" ><g id="svgg"><path id="path0" d="M25.995 193.687 C 25.992 243.909,25.881 285.405,25.748 285.900 L 25.507 286.800 12.753 286.800 L 0.000 286.800 -0.000 292.601 L -0.000 298.401 125.300 298.301 L 250.600 298.200 250.702 265.422 C 250.782 239.809,250.913 232.575,251.302 232.328 C 251.876 231.964,293.217 231.878,294.158 232.239 C 294.819 232.493,295.920 233.932,300.865 241.000 C 302.558 243.420,304.096 245.580,304.282 245.800 C 304.469 246.020,305.052 246.830,305.577 247.600 C 306.103 248.370,307.126 249.810,307.850 250.800 C 309.085 252.490,320.964 269.224,324.286 273.956 C 325.119 275.142,326.537 277.122,327.438 278.356 C 328.339 279.590,331.915 284.605,335.385 289.500 L 341.694 298.400 370.847 298.400 L 400.000 298.400 400.000 292.606 L 400.000 286.811 387.338 286.706 L 374.675 286.600 368.919 278.600 C 365.753 274.200,362.420 269.520,361.512 268.200 C 360.603 266.880,359.745 265.710,359.604 265.600 C 359.463 265.490,358.746 264.517,358.012 263.438 C 357.277 262.359,355.579 259.984,354.238 258.160 C 352.897 256.336,350.815 253.439,349.610 251.722 C 348.406 250.005,347.313 248.510,347.180 248.400 C 346.936 248.197,343.730 243.633,343.000 242.449 C 342.780 242.092,342.501 241.710,342.381 241.600 C 342.260 241.490,341.723 240.770,341.186 240.000 C 340.650 239.230,339.989 238.330,339.717 238.000 C 337.503 235.313,332.394 227.731,332.485 227.268 C 332.548 226.949,333.532 226.396,334.671 226.040 C 335.809 225.684,336.874 225.259,337.037 225.096 C 337.200 224.933,337.658 224.800,338.055 224.800 C 338.451 224.800,339.366 224.475,340.088 224.077 C 340.810 223.680,342.030 223.107,342.800 222.804 C 348.155 220.698,357.529 213.613,360.894 209.127 C 361.496 208.325,362.263 207.394,362.599 207.058 C 366.077 203.580,371.338 191.309,372.743 183.400 C 372.977 182.080,373.388 179.740,373.657 178.200 C 374.321 174.385,374.333 157.063,373.673 153.400 C 373.396 151.860,372.974 149.520,372.736 148.200 C 369.319 129.237,358.694 116.658,339.800 109.203 C 337.904 108.455,332.760 106.948,330.200 106.392 C 329.320 106.200,327.790 105.849,326.800 105.611 C 315.646 102.933,308.331 102.600,260.600 102.600 L 218.200 102.600 218.099 194.700 L 217.998 286.800 138.196 286.800 L 58.393 286.800 58.497 263.900 L 58.600 241.000 82.000 240.755 C 107.384 240.490,113.547 240.085,124.600 237.955 C 151.518 232.768,169.335 218.637,174.851 198.100 C 175.043 197.385,175.394 196.125,175.630 195.300 C 179.018 183.487,179.019 160.421,175.633 148.700 C 175.395 147.875,175.041 146.615,174.847 145.900 C 172.751 138.170,167.134 128.277,161.969 123.218 C 156.128 117.498,150.522 113.822,141.800 109.994 C 138.771 108.665,130.027 106.167,125.000 105.196 C 123.680 104.941,122.240 104.644,121.800 104.536 C 120.931 104.324,116.793 103.799,110.800 103.142 C 108.538 102.894,90.604 102.654,66.500 102.550 L 26.000 102.375 25.995 193.687 M105.123 132.421 C 120.257 134.067,129.830 137.509,135.761 143.438 C 140.417 148.092,142.659 152.701,144.368 161.131 C 144.926 163.883,144.927 175.439,144.369 178.576 C 143.348 184.320,143.110 185.438,142.765 186.095 C 142.564 186.477,142.400 187.064,142.400 187.400 C 142.400 187.736,142.241 188.323,142.047 188.705 C 141.852 189.087,141.471 189.940,141.200 190.600 C 140.248 192.916,138.638 195.779,137.263 197.600 C 134.764 200.912,129.359 205.600,128.040 205.600 C 127.811 205.600,127.034 205.924,126.312 206.321 C 124.142 207.513,120.054 208.751,115.400 209.626 C 108.787 210.870,105.665 211.000,82.400 211.000 L 58.600 211.000 58.498 171.500 L 58.396 132.000 79.821 132.000 C 92.114 132.000,102.899 132.180,105.123 132.421 M307.829 132.610 C 329.216 134.982,337.249 140.922,340.267 156.600 C 340.752 159.124,340.644 173.131,340.118 175.800 C 339.307 179.911,339.151 180.573,338.770 181.500 C 338.566 181.995,338.220 182.850,338.000 183.400 C 333.982 193.444,326.342 198.787,312.600 201.162 C 305.183 202.444,302.506 202.550,277.000 202.575 L 251.000 202.600 250.898 167.300 L 250.796 132.000 276.560 132.000 C 296.984 132.000,303.465 132.127,307.829 132.610 " stroke="none" fill="#fbfbfb" fill-rule="evenodd"></path><path id="path1" d="M30.300 0.290 C 29.475 0.377,28.800 0.617,28.800 0.824 C 28.800 1.031,28.260 1.200,27.600 1.200 C 26.940 1.200,26.400 1.380,26.400 1.600 C 26.400 1.820,25.860 2.000,25.200 2.000 C 24.540 2.000,24.000 2.180,24.000 2.400 C 24.000 2.620,23.640 2.800,23.200 2.800 C 22.760 2.800,22.400 2.980,22.400 3.200 C 22.400 3.420,22.040 3.600,21.600 3.600 C 21.160 3.600,20.800 3.780,20.800 4.000 C 20.800 4.220,20.440 4.400,20.000 4.400 C 19.560 4.400,19.200 4.580,19.200 4.800 C 19.200 5.020,18.957 5.200,18.659 5.200 C 18.362 5.200,17.554 5.740,16.863 6.400 C 16.172 7.060,15.411 7.600,15.171 7.600 C 14.602 7.600,7.600 14.602,7.600 15.171 C 7.600 15.411,7.060 16.172,6.400 16.863 C 5.740 17.554,5.200 18.362,5.200 18.659 C 5.200 18.957,5.020 19.200,4.800 19.200 C 4.580 19.200,4.400 19.560,4.400 20.000 C 4.400 20.440,4.220 20.800,4.000 20.800 C 3.780 20.800,3.600 21.160,3.600 21.600 C 3.600 22.040,3.420 22.400,3.200 22.400 C 2.980 22.400,2.800 22.760,2.800 23.200 C 2.800 23.640,2.620 24.000,2.400 24.000 C 2.180 24.000,2.000 24.540,2.000 25.200 C 2.000 25.860,1.820 26.400,1.600 26.400 C 1.380 26.400,1.200 26.925,1.200 27.567 C 1.200 28.208,0.975 28.808,0.700 28.900 C 0.302 29.033,0.179 55.190,0.096 157.533 L -0.008 286.000 12.396 286.000 L 24.800 286.000 24.800 194.280 C 24.800 123.476,24.909 102.451,25.280 102.080 C 25.873 101.487,93.047 101.434,104.000 102.019 C 114.203 102.563,121.803 103.550,128.300 105.175 C 129.235 105.409,130.675 105.768,131.500 105.973 C 132.325 106.179,133.720 106.551,134.600 106.801 C 135.480 107.051,136.608 107.355,137.106 107.476 C 137.604 107.597,138.110 107.854,138.230 108.048 C 138.349 108.241,138.799 108.400,139.229 108.400 C 139.659 108.400,140.323 108.565,140.705 108.766 C 141.087 108.968,142.120 109.437,143.000 109.809 C 153.794 114.374,161.648 120.578,167.828 129.419 C 169.652 132.028,173.590 139.415,173.597 140.239 C 173.598 140.480,173.894 141.266,174.253 141.985 C 174.612 142.705,175.072 143.948,175.275 144.747 C 175.479 145.546,175.829 146.830,176.053 147.600 C 179.236 158.533,179.952 177.930,177.602 189.600 C 177.359 190.810,177.059 192.476,176.937 193.303 C 176.815 194.129,176.555 194.905,176.358 195.026 C 176.161 195.148,176.000 195.766,176.000 196.400 C 176.000 197.034,175.820 197.664,175.600 197.800 C 175.380 197.936,175.200 198.366,175.200 198.755 C 175.200 204.414,164.548 220.044,157.181 225.196 C 156.422 225.727,155.710 226.269,155.600 226.400 C 155.490 226.531,154.860 227.014,154.200 227.472 C 153.093 228.241,152.311 228.705,148.700 230.729 C 143.714 233.524,134.063 236.790,126.000 238.412 C 114.159 240.794,108.121 241.203,81.300 241.439 L 58.800 241.637 58.800 263.819 L 58.800 286.000 138.000 286.000 L 217.200 286.000 217.200 194.280 C 217.200 123.476,217.309 102.451,217.680 102.080 C 218.271 101.489,290.748 101.424,302.400 102.005 C 314.877 102.626,321.820 103.577,331.600 106.003 C 332.590 106.248,333.897 106.549,334.505 106.671 C 335.113 106.793,335.708 107.051,335.829 107.246 C 335.949 107.441,336.476 107.600,337.000 107.600 C 337.524 107.600,338.064 107.780,338.200 108.000 C 338.336 108.220,338.876 108.400,339.400 108.400 C 339.924 108.400,340.464 108.580,340.600 108.800 C 340.736 109.020,341.197 109.200,341.624 109.200 C 342.051 109.200,342.400 109.380,342.400 109.600 C 342.400 109.820,342.715 110.002,343.100 110.005 C 343.485 110.008,345.195 110.723,346.901 111.593 C 365.942 121.316,374.879 138.533,374.934 165.600 C 374.943 169.890,374.734 175.020,374.470 177.000 C 374.206 178.980,373.884 181.410,373.754 182.400 C 373.624 183.390,373.356 184.371,373.159 184.580 C 372.962 184.789,372.800 185.469,372.800 186.092 C 372.800 187.154,370.856 193.644,370.012 195.400 C 369.800 195.840,369.199 197.190,368.675 198.400 C 367.668 200.728,364.924 205.258,363.709 206.600 C 363.311 207.040,362.542 208.030,362.001 208.800 C 360.617 210.769,355.960 215.309,353.330 217.252 C 350.756 219.153,344.894 222.800,344.411 222.800 C 344.230 222.800,343.118 223.301,341.941 223.914 C 340.763 224.526,338.990 225.279,338.000 225.586 C 337.010 225.893,336.020 226.274,335.800 226.434 C 335.580 226.593,334.950 226.786,334.400 226.862 C 332.844 227.077,334.330 230.067,338.564 235.238 C 338.851 235.589,339.863 237.029,340.813 238.438 C 341.763 239.847,342.652 241.090,342.789 241.200 C 342.926 241.310,343.471 242.030,344.000 242.800 C 344.529 243.570,345.074 244.290,345.211 244.400 C 345.348 244.510,346.243 245.770,347.200 247.200 C 348.157 248.630,349.055 249.890,349.196 250.000 C 349.336 250.110,350.691 252.000,352.207 254.200 C 353.723 256.400,355.071 258.290,355.203 258.400 C 355.334 258.510,356.243 259.770,357.221 261.200 C 358.199 262.630,359.099 263.890,359.219 264.000 C 359.340 264.110,359.871 264.830,360.400 265.600 C 360.929 266.370,361.474 267.090,361.611 267.200 C 361.748 267.310,362.611 268.480,363.528 269.800 C 365.144 272.124,367.660 275.664,371.793 281.423 C 372.888 282.950,373.923 284.260,374.093 284.333 C 374.262 284.407,374.400 284.702,374.400 284.991 C 374.400 285.920,375.470 286.000,387.837 286.000 L 400.008 286.000 399.904 157.533 C 399.821 55.190,399.698 29.033,399.300 28.900 C 399.025 28.808,398.800 28.208,398.800 27.567 C 398.800 26.925,398.620 26.400,398.400 26.400 C 398.180 26.400,398.000 25.860,398.000 25.200 C 398.000 24.540,397.820 24.000,397.600 24.000 C 397.380 24.000,397.200 23.640,397.200 23.200 C 397.200 22.760,397.020 22.400,396.800 22.400 C 396.580 22.400,396.400 22.040,396.400 21.600 C 396.400 21.160,396.220 20.800,396.000 20.800 C 395.780 20.800,395.600 20.440,395.600 20.000 C 395.600 19.560,395.420 19.200,395.200 19.200 C 394.980 19.200,394.800 18.957,394.800 18.659 C 394.800 18.362,394.260 17.554,393.600 16.863 C 392.940 16.172,392.399 15.381,392.398 15.104 C 392.395 14.501,385.421 7.600,384.815 7.600 C 384.583 7.600,383.828 7.060,383.137 6.400 C 382.446 5.740,381.638 5.200,381.341 5.200 C 381.043 5.200,380.800 5.020,380.800 4.800 C 380.800 4.580,380.440 4.400,380.000 4.400 C 379.560 4.400,379.200 4.220,379.200 4.000 C 379.200 3.780,378.840 3.600,378.400 3.600 C 377.960 3.600,377.600 3.420,377.600 3.200 C 377.600 2.980,377.240 2.800,376.800 2.800 C 376.360 2.800,376.000 2.620,376.000 2.400 C 376.000 2.180,375.561 2.000,375.024 2.000 C 374.487 2.000,373.936 1.820,373.800 1.600 C 373.664 1.380,373.149 1.200,372.656 1.200 C 372.163 1.200,371.535 0.975,371.260 0.700 C 370.787 0.227,34.721 -0.177,30.300 0.290 M58.800 171.400 L 58.800 210.400 81.100 210.358 C 93.365 210.334,105.200 210.158,107.400 209.966 C 113.986 209.391,115.781 209.145,116.180 208.763 C 116.389 208.563,117.006 208.400,117.552 208.400 C 118.574 208.400,120.873 207.768,122.095 207.151 C 122.477 206.958,122.980 206.800,123.214 206.800 C 123.448 206.800,124.384 206.440,125.294 206.000 C 126.205 205.560,127.106 205.200,127.297 205.200 C 129.083 205.200,136.578 198.161,138.299 194.868 C 139.739 192.112,140.342 190.888,140.794 189.800 C 141.069 189.140,141.452 188.287,141.647 187.905 C 141.841 187.523,142.000 186.769,142.000 186.229 C 142.000 185.689,142.161 185.148,142.358 185.026 C 144.039 183.987,144.755 160.324,143.157 158.620 C 142.960 158.411,142.800 157.747,142.800 157.144 C 142.800 156.541,142.620 155.936,142.400 155.800 C 142.180 155.664,142.000 155.209,142.000 154.789 C 142.000 154.368,141.640 153.383,141.200 152.600 C 140.760 151.817,140.400 150.911,140.400 150.588 C 140.400 150.265,140.264 150.000,140.098 150.000 C 139.931 150.000,139.542 149.415,139.233 148.700 C 138.504 147.012,132.661 141.240,130.599 140.170 C 129.720 139.713,128.640 139.143,128.200 138.903 C 119.407 134.097,105.892 132.433,75.500 132.412 L 58.800 132.400 58.800 171.400 M251.600 167.200 L 251.600 202.000 275.557 202.000 C 322.331 202.000,331.749 198.843,338.217 181.000 C 340.609 174.401,340.717 157.269,338.401 151.800 C 338.215 151.360,337.764 150.171,337.399 149.157 C 336.081 145.499,332.001 140.610,328.925 139.004 C 328.086 138.566,327.310 138.116,327.200 138.004 C 326.933 137.732,323.486 136.463,321.000 135.722 C 312.811 133.280,300.055 132.416,272.100 132.407 L 251.600 132.400 251.600 167.200 M251.600 265.720 C 251.600 290.480,251.485 298.355,251.120 298.720 C 250.749 299.091,222.255 299.200,125.306 299.200 L -0.028 299.200 0.086 334.980 C 0.175 362.947,0.309 370.869,0.700 371.260 C 0.975 371.535,1.200 372.163,1.200 372.656 C 1.200 373.149,1.380 373.664,1.600 373.800 C 1.820 373.936,2.000 374.487,2.000 375.024 C 2.000 375.561,2.180 376.000,2.400 376.000 C 2.620 376.000,2.800 376.360,2.800 376.800 C 2.800 377.240,2.980 377.600,3.200 377.600 C 3.420 377.600,3.600 377.960,3.600 378.400 C 3.600 378.840,3.780 379.200,4.000 379.200 C 4.220 379.200,4.400 379.560,4.400 380.000 C 4.400 380.440,4.580 380.800,4.800 380.800 C 5.020 380.800,5.200 381.043,5.200 381.341 C 5.200 381.638,5.740 382.446,6.400 383.137 C 7.060 383.828,7.600 384.583,7.600 384.815 C 7.600 385.421,14.501 392.395,15.104 392.398 C 15.381 392.399,16.172 392.940,16.863 393.600 C 17.554 394.260,18.362 394.800,18.659 394.800 C 18.957 394.800,19.200 394.980,19.200 395.200 C 19.200 395.420,19.560 395.600,20.000 395.600 C 20.440 395.600,20.800 395.780,20.800 396.000 C 20.800 396.220,21.160 396.400,21.600 396.400 C 22.040 396.400,22.400 396.580,22.400 396.800 C 22.400 397.020,22.760 397.200,23.200 397.200 C 23.640 397.200,24.000 397.380,24.000 397.600 C 24.000 397.820,24.540 398.000,25.200 398.000 C 25.860 398.000,26.400 398.180,26.400 398.400 C 26.400 398.620,26.925 398.800,27.567 398.800 C 28.208 398.800,28.808 399.025,28.900 399.300 C 29.145 400.036,370.524 400.036,371.260 399.300 C 371.535 399.025,372.163 398.800,372.656 398.800 C 373.149 398.800,373.664 398.620,373.800 398.400 C 373.936 398.180,374.487 398.000,375.024 398.000 C 375.561 398.000,376.000 397.820,376.000 397.600 C 376.000 397.380,376.360 397.200,376.800 397.200 C 377.240 397.200,377.600 397.020,377.600 396.800 C 377.600 396.580,377.960 396.400,378.400 396.400 C 378.840 396.400,379.200 396.220,379.200 396.000 C 379.200 395.780,379.560 395.600,380.000 395.600 C 380.440 395.600,380.800 395.420,380.800 395.200 C 380.800 394.980,381.043 394.800,381.341 394.800 C 381.638 394.800,382.446 394.260,383.137 393.600 C 383.828 392.940,384.579 392.400,384.807 392.400 C 385.738 392.400,392.400 385.738,392.400 384.807 C 392.400 384.579,392.940 383.828,393.600 383.137 C 394.260 382.446,394.800 381.638,394.800 381.341 C 394.800 381.043,394.980 380.800,395.200 380.800 C 395.420 380.800,395.600 380.440,395.600 380.000 C 395.600 379.560,395.780 379.200,396.000 379.200 C 396.220 379.200,396.400 378.840,396.400 378.400 C 396.400 377.960,396.580 377.600,396.800 377.600 C 397.020 377.600,397.200 377.240,397.200 376.800 C 397.200 376.360,397.380 376.000,397.600 376.000 C 397.820 376.000,398.000 375.561,398.000 375.024 C 398.000 374.487,398.180 373.936,398.400 373.800 C 398.620 373.664,398.800 373.149,398.800 372.656 C 398.800 372.163,399.025 371.535,399.300 371.260 C 399.691 370.869,399.825 362.947,399.914 334.980 L 400.028 299.200 370.880 299.200 L 341.732 299.200 340.757 298.100 C 340.221 297.495,338.977 295.831,337.991 294.403 C 337.006 292.974,336.062 291.624,335.894 291.403 C 334.606 289.708,332.617 286.905,330.781 284.200 C 329.586 282.440,328.503 280.910,328.374 280.800 C 328.245 280.690,327.357 279.430,326.400 278.000 C 325.443 276.570,324.543 275.310,324.400 275.200 C 324.257 275.090,323.393 273.920,322.481 272.600 C 321.569 271.280,319.098 267.770,316.991 264.800 C 314.885 261.830,312.239 258.050,311.113 256.400 C 309.986 254.750,308.946 253.310,308.802 253.200 C 308.658 253.090,307.790 251.920,306.873 250.600 C 305.956 249.280,303.857 246.310,302.210 244.000 C 300.563 241.690,298.282 238.450,297.141 236.800 C 296.001 235.150,294.873 233.668,294.634 233.506 C 294.395 233.344,284.615 233.209,272.900 233.206 L 251.600 233.200 251.600 265.720 " stroke="none" fill="#040404" fill-rule="evenodd"></path><path id="path2" d="M25.385 102.500 C 25.280 102.775,25.241 144.130,25.297 194.400 L 25.400 285.800 25.600 193.900 C 25.710 143.355,25.749 102.000,25.687 102.000 C 25.626 102.000,25.489 102.225,25.385 102.500 M97.900 102.293 C 98.835 102.377,100.365 102.377,101.300 102.293 C 102.235 102.209,101.470 102.140,99.600 102.140 C 97.730 102.140,96.965 102.209,97.900 102.293 M217.785 102.500 C 217.680 102.775,217.641 144.220,217.697 194.600 L 217.800 286.200 218.000 194.100 C 218.110 143.445,218.149 102.000,218.087 102.000 C 218.026 102.000,217.889 102.225,217.785 102.500 M295.900 102.293 C 296.835 102.377,298.365 102.377,299.300 102.293 C 300.235 102.209,299.470 102.140,297.600 102.140 C 295.730 102.140,294.965 102.209,295.900 102.293 M68.300 132.300 C 73.635 132.363,82.365 132.363,87.700 132.300 C 93.035 132.237,88.670 132.185,78.000 132.185 C 67.330 132.185,62.965 132.237,68.300 132.300 M251.067 132.267 C 250.696 132.637,250.729 201.909,251.100 202.138 C 251.265 202.240,251.353 186.592,251.296 167.365 L 251.191 132.406 274.496 132.300 L 297.800 132.193 274.567 132.097 C 261.788 132.044,251.213 132.120,251.067 132.267 M58.592 171.600 C 58.592 192.830,58.641 201.515,58.700 190.900 C 58.759 180.285,58.759 162.915,58.700 152.300 C 58.641 141.685,58.592 150.370,58.592 171.600 M374.501 160.200 C 374.505 161.080,374.587 161.393,374.683 160.895 C 374.779 160.398,374.775 159.678,374.675 159.295 C 374.575 158.913,374.496 159.320,374.501 160.200 M340.542 165.800 C 340.541 167.780,340.608 168.640,340.692 167.712 C 340.776 166.784,340.777 165.164,340.695 164.112 C 340.612 163.060,340.543 163.820,340.542 165.800 M178.501 166.600 C 178.505 167.480,178.587 167.793,178.683 167.295 C 178.779 166.798,178.775 166.078,178.675 165.695 C 178.575 165.313,178.496 165.720,178.501 166.600 M374.493 170.400 C 374.493 171.170,374.575 171.485,374.676 171.100 C 374.776 170.715,374.776 170.085,374.676 169.700 C 374.575 169.315,374.493 169.630,374.493 170.400 M178.501 177.800 C 178.505 178.680,178.587 178.993,178.683 178.495 C 178.779 177.998,178.775 177.278,178.675 176.895 C 178.575 176.513,178.496 176.920,178.501 177.800 M357.986 212.700 L 355.800 215.000 358.100 212.814 C 360.237 210.782,360.583 210.400,360.286 210.400 C 360.224 210.400,359.189 211.435,357.986 212.700 M250.991 265.600 C 250.991 283.530,251.040 290.865,251.100 281.900 C 251.160 272.935,251.160 258.265,251.100 249.300 C 251.040 240.335,250.991 247.670,250.991 265.600 M95.500 241.089 C 96.215 241.178,97.385 241.178,98.100 241.089 C 98.815 241.001,98.230 240.928,96.800 240.928 C 95.370 240.928,94.785 241.001,95.500 241.089 M58.587 263.600 C 58.587 275.810,58.638 280.805,58.700 274.700 C 58.762 268.595,58.762 258.605,58.700 252.500 C 58.638 246.395,58.587 251.390,58.587 263.600 M375.145 286.506 C 375.314 286.674,381.020 286.764,387.826 286.706 L 400.200 286.599 387.520 286.400 C 380.545 286.290,374.977 286.338,375.145 286.506 M6.100 286.699 C 9.565 286.766,15.235 286.766,18.700 286.699 C 22.165 286.633,19.330 286.578,12.400 286.578 C 5.470 286.578,2.635 286.633,6.100 286.699 M98.332 286.700 C 120.184 286.757,155.824 286.757,177.532 286.700 C 199.239 286.643,181.360 286.596,137.800 286.596 C 94.240 286.596,76.479 286.643,98.332 286.700 M62.732 298.700 C 97.345 298.756,153.865 298.756,188.332 298.700 C 222.800 298.644,194.480 298.597,125.400 298.597 C 56.320 298.597,28.120 298.644,62.732 298.700 M356.100 298.700 C 364.185 298.760,377.415 298.760,385.500 298.700 C 393.585 298.639,386.970 298.590,370.800 298.590 C 354.630 298.590,348.015 298.639,356.100 298.700 " stroke="none" fill="#7c7c7c" fill-rule="evenodd"></path><path id="path3" d="M25.280 102.080 C 24.909 102.451,24.800 123.474,24.800 194.274 L 24.800 285.989 12.300 286.100 L -0.200 286.212 12.499 286.306 L 25.198 286.400 25.299 194.300 L 25.400 102.200 62.400 101.997 L 99.400 101.794 62.580 101.697 C 34.367 101.623,25.648 101.712,25.280 102.080 M217.680 102.080 C 217.309 102.451,217.200 123.475,217.200 194.279 L 217.200 285.998 137.900 286.100 L 58.600 286.202 138.099 286.301 L 217.598 286.400 217.699 194.300 L 217.800 102.200 257.800 101.997 L 297.800 101.794 257.980 101.697 C 227.433 101.623,218.048 101.712,217.680 102.080 M102.833 102.144 C 102.925 102.224,105.070 102.380,107.600 102.492 C 110.477 102.620,111.526 102.577,110.400 102.378 C 108.600 102.059,102.519 101.872,102.833 102.144 M302.500 102.294 C 303.545 102.376,305.255 102.376,306.300 102.294 C 307.345 102.212,306.490 102.144,304.400 102.144 C 302.310 102.144,301.455 102.212,302.500 102.294 M309.105 102.683 C 309.602 102.779,310.322 102.775,310.705 102.675 C 311.087 102.575,310.680 102.496,309.800 102.501 C 308.920 102.505,308.607 102.587,309.105 102.683 M112.433 102.944 C 112.525 103.023,114.040 103.183,115.800 103.298 C 117.615 103.418,118.481 103.376,117.800 103.202 C 116.588 102.891,112.125 102.677,112.433 102.944 M311.633 102.944 C 311.725 103.024,313.330 103.181,315.200 103.294 C 317.072 103.408,318.061 103.364,317.400 103.197 C 316.186 102.891,311.326 102.678,311.633 102.944 M119.905 103.883 C 120.402 103.979,121.122 103.975,121.505 103.875 C 121.887 103.775,121.480 103.696,120.600 103.701 C 119.720 103.705,119.407 103.787,119.905 103.883 M318.833 103.744 C 318.925 103.823,319.900 103.991,321.000 104.118 C 322.287 104.267,322.715 104.226,322.200 104.003 C 321.436 103.672,318.486 103.445,318.833 103.744 M124.033 104.547 C 124.125 104.628,124.920 104.814,125.800 104.962 C 126.946 105.154,127.230 105.114,126.800 104.821 C 126.260 104.453,123.632 104.193,124.033 104.547 M323.633 104.543 C 323.725 104.622,324.520 104.797,325.400 104.932 C 326.490 105.099,326.809 105.055,326.400 104.795 C 325.853 104.446,323.245 104.209,323.633 104.543 M127.633 105.343 C 127.725 105.421,128.430 105.601,129.200 105.742 C 130.185 105.923,130.422 105.882,130.000 105.606 C 129.458 105.250,127.237 105.003,127.633 105.343 M327.633 105.343 C 327.725 105.421,328.430 105.601,329.200 105.742 C 330.185 105.923,330.422 105.882,330.000 105.606 C 329.458 105.250,327.237 105.003,327.633 105.343 M130.833 106.143 C 130.925 106.221,131.630 106.401,132.400 106.542 C 133.385 106.723,133.622 106.682,133.200 106.406 C 132.658 106.050,130.437 105.803,130.833 106.143 M330.833 106.143 C 330.925 106.221,331.630 106.401,332.400 106.542 C 333.385 106.723,333.622 106.682,333.200 106.406 C 332.658 106.050,330.437 105.803,330.833 106.143 M151.200 114.179 C 151.200 114.289,151.740 114.659,152.400 115.000 C 153.060 115.341,153.600 115.531,153.600 115.421 C 153.600 115.311,153.060 114.941,152.400 114.600 C 151.740 114.259,151.200 114.069,151.200 114.179 M154.811 116.671 C 155.355 117.040,156.655 118.047,157.700 118.908 C 158.745 119.770,159.592 120.323,159.582 120.137 C 159.560 119.737,154.671 116.000,154.169 116.000 C 153.978 116.000,154.267 116.302,154.811 116.671 M359.586 121.000 C 363.634 125.363,363.927 125.645,362.500 123.800 C 361.820 122.920,360.218 121.210,358.941 120.000 C 356.975 118.138,357.074 118.291,359.586 121.000 M161.835 122.375 C 162.734 123.379,163.859 124.719,164.335 125.354 C 164.811 125.989,165.200 126.324,165.200 126.100 C 165.200 125.875,164.075 124.534,162.700 123.120 C 161.325 121.706,160.936 121.371,161.835 122.375 M365.083 127.756 C 365.917 128.941,366.658 129.858,366.729 129.794 C 366.934 129.605,364.233 125.646,363.883 125.622 C 363.709 125.610,364.249 126.570,365.083 127.756 M165.614 126.622 C 165.630 127.024,167.595 129.555,167.598 129.178 C 167.599 129.055,167.150 128.345,166.600 127.600 C 166.050 126.855,165.606 126.415,165.614 126.622 M168.780 131.506 C 169.489 132.658,170.155 133.600,170.260 133.600 C 170.573 133.600,168.675 130.394,168.060 129.883 C 167.747 129.624,168.072 130.355,168.780 131.506 M95.900 132.693 C 96.835 132.777,98.365 132.777,99.300 132.693 C 100.235 132.609,99.470 132.540,97.600 132.540 C 95.730 132.540,94.965 132.609,95.900 132.693 M251.397 167.200 L 251.400 202.200 275.700 202.205 L 300.000 202.209 275.802 202.102 L 251.604 201.994 251.499 167.097 L 251.393 132.200 251.397 167.200 M299.000 132.819 C 301.200 132.977,304.260 133.098,305.800 133.088 C 308.424 133.072,308.362 133.052,304.800 132.780 C 302.710 132.620,299.650 132.499,298.000 132.511 C 295.106 132.531,295.142 132.542,299.000 132.819 M102.711 133.093 C 103.651 133.178,105.091 133.177,105.911 133.091 C 106.730 133.005,105.960 132.936,104.200 132.937 C 102.440 132.939,101.770 133.009,102.711 133.093 M110.033 133.744 C 110.125 133.823,111.190 133.989,112.400 134.112 C 113.769 134.251,114.298 134.208,113.800 133.996 C 113.033 133.670,109.689 133.447,110.033 133.744 M311.633 133.746 C 311.725 133.826,312.790 133.994,314.000 134.119 C 315.420 134.266,315.846 134.229,315.200 134.013 C 314.209 133.683,311.313 133.465,311.633 133.746 M114.833 134.547 C 114.925 134.628,115.720 134.804,116.600 134.938 C 117.715 135.107,117.958 135.071,117.400 134.819 C 116.632 134.471,114.490 134.244,114.833 134.547 M319.200 135.141 C 319.530 135.334,320.340 135.609,321.000 135.752 C 321.768 135.918,321.984 135.884,321.600 135.659 C 321.270 135.466,320.460 135.191,319.800 135.048 C 319.032 134.882,318.816 134.916,319.200 135.141 M118.433 135.344 C 118.525 135.423,119.140 135.608,119.800 135.756 C 120.676 135.952,120.838 135.915,120.400 135.618 C 119.860 135.253,118.032 134.998,118.433 135.344 M328.962 138.894 C 329.381 139.172,330.371 139.933,331.162 140.585 L 332.600 141.770 331.600 140.647 C 331.050 140.029,330.060 139.269,329.400 138.956 C 328.718 138.634,328.529 138.607,328.962 138.894 M133.200 141.626 C 133.200 141.736,134.461 143.115,136.002 144.690 C 137.543 146.265,138.636 147.249,138.431 146.877 C 138.026 146.142,133.200 141.297,133.200 141.626 M332.800 141.809 C 332.800 141.966,333.295 142.662,333.900 143.357 C 334.505 144.051,335.320 145.065,335.712 145.609 C 336.235 146.339,336.319 146.378,336.029 145.758 C 335.568 144.775,332.800 141.390,332.800 141.809 M372.846 146.800 C 372.865 147.130,373.024 147.850,373.200 148.400 L 373.520 149.400 373.554 148.400 C 373.573 147.850,373.413 147.130,373.200 146.800 C 372.855 146.267,372.816 146.267,372.846 146.800 M337.267 148.820 C 337.501 149.492,337.767 149.967,337.857 149.876 C 338.056 149.678,337.301 147.600,337.031 147.600 C 336.927 147.600,337.033 148.149,337.267 148.820 M373.838 152.200 C 374.170 154.184,374.402 154.504,374.394 152.967 C 374.391 152.325,374.204 151.530,373.979 151.200 C 373.686 150.770,373.646 151.054,373.838 152.200 M177.038 153.400 C 177.370 155.384,177.602 155.704,177.594 154.167 C 177.591 153.525,177.404 152.730,177.179 152.400 C 176.886 151.970,176.846 152.254,177.038 153.400 M338.806 153.433 C 338.809 153.855,338.995 154.470,339.218 154.800 C 339.515 155.238,339.552 155.076,339.356 154.200 C 339.027 152.729,338.798 152.410,338.806 153.433 M177.866 158.400 C 178.001 159.610,178.177 160.675,178.256 160.767 C 178.594 161.158,178.352 157.344,178.004 156.800 C 177.748 156.399,177.702 156.930,177.866 158.400 M339.647 157.833 C 339.673 158.695,339.839 159.940,340.015 160.600 C 340.218 161.356,340.254 160.838,340.115 159.200 C 339.867 156.286,339.575 155.431,339.647 157.833 M374.600 165.843 C 374.600 170.797,374.717 174.434,374.860 173.925 C 375.207 172.690,375.218 158.385,374.872 157.518 C 374.722 157.143,374.600 160.889,374.600 165.843 M143.675 161.800 C 143.665 162.460,143.811 163.360,144.000 163.800 L 144.344 164.600 144.325 163.800 C 144.314 163.360,144.168 162.460,144.000 161.800 L 143.695 160.600 143.675 161.800 M178.600 171.997 C 178.600 177.082,178.717 180.829,178.860 180.322 C 179.003 179.815,179.120 176.070,179.120 172.000 C 179.120 167.930,179.003 164.184,178.860 163.675 C 178.717 163.166,178.600 166.911,178.600 171.997 M339.869 171.156 C 339.721 171.895,339.622 173.153,339.649 173.950 C 339.686 175.049,339.782 174.818,340.048 173.000 C 340.431 170.371,340.299 169.005,339.869 171.156 M143.840 175.542 C 143.681 176.940,143.637 178.170,143.742 178.276 C 144.008 178.541,144.527 174.179,144.307 173.528 C 144.210 173.238,143.999 174.144,143.840 175.542 M339.049 177.015 C 338.912 177.373,338.818 178.146,338.840 178.733 C 338.873 179.591,338.952 179.495,339.246 178.240 C 339.622 176.639,339.495 175.853,339.049 177.015 M374.064 177.850 C 374.029 178.317,373.905 179.308,373.789 180.050 C 373.596 181.286,373.615 181.317,374.008 180.414 C 374.245 179.872,374.368 178.882,374.283 178.214 C 374.191 177.497,374.102 177.348,374.064 177.850 M143.073 181.753 C 142.923 182.145,142.811 182.766,142.825 183.133 C 142.842 183.575,142.981 183.474,143.237 182.834 C 143.449 182.303,143.561 181.682,143.485 181.454 C 143.409 181.227,143.224 181.361,143.073 181.753 M373.246 183.067 C 373.221 183.324,373.084 183.864,372.941 184.267 C 372.740 184.836,372.794 184.897,373.179 184.542 C 373.452 184.291,373.589 183.751,373.484 183.342 C 373.379 182.934,373.272 182.810,373.246 183.067 M178.067 184.600 C 178.024 185.480,177.889 186.650,177.767 187.200 C 177.577 188.057,177.609 188.099,177.994 187.497 C 178.241 187.110,178.376 185.940,178.294 184.897 C 178.148 183.053,178.142 183.045,178.067 184.600 M142.267 185.067 C 142.120 185.213,142.011 185.708,142.025 186.167 C 142.049 186.933,142.082 186.923,142.434 186.042 C 142.826 185.063,142.744 184.589,142.267 185.067 M335.050 187.751 C 334.485 188.714,333.033 190.549,331.823 191.829 C 330.613 193.109,329.685 194.218,329.761 194.294 C 330.029 194.562,334.611 189.280,335.526 187.650 C 336.764 185.442,336.352 185.530,335.050 187.751 M372.200 187.600 C 372.050 188.073,372.017 188.550,372.127 188.660 C 372.237 188.770,372.450 188.473,372.600 188.000 C 372.750 187.527,372.783 187.050,372.673 186.940 C 372.563 186.830,372.350 187.127,372.200 187.600 M177.254 189.867 C 177.225 190.344,177.096 191.064,176.970 191.467 C 176.752 192.161,176.764 192.162,177.196 191.488 C 177.447 191.097,177.575 190.377,177.481 189.888 C 177.309 189.001,177.309 189.001,177.254 189.867 M139.400 192.800 C 139.059 193.460,138.869 194.000,138.979 194.000 C 139.089 194.000,139.459 193.460,139.800 192.800 C 140.141 192.140,140.331 191.600,140.221 191.600 C 140.111 191.600,139.741 192.140,139.400 192.800 M136.029 197.891 C 135.353 198.711,134.800 199.535,134.800 199.722 C 134.800 200.025,135.527 199.216,137.158 197.100 C 138.202 195.746,137.244 196.417,136.029 197.891 M367.291 200.534 C 366.571 201.890,366.270 202.640,366.622 202.200 C 367.405 201.222,368.904 198.371,368.728 198.195 C 368.658 198.125,368.011 199.178,367.291 200.534 M312.800 200.400 C 311.443 200.686,311.437 200.695,312.600 200.707 C 313.260 200.715,314.250 200.576,314.800 200.400 C 316.112 199.980,314.796 199.980,312.800 200.400 M132.793 201.408 C 132.272 201.962,130.981 202.971,129.923 203.649 C 127.798 205.013,127.284 205.664,129.234 204.523 C 130.799 203.606,134.585 200.400,134.102 200.400 C 133.903 200.400,133.313 200.853,132.793 201.408 M306.105 201.487 C 306.714 201.579,307.614 201.577,308.105 201.482 C 308.597 201.387,308.100 201.311,307.000 201.314 C 305.900 201.317,305.497 201.395,306.105 201.487 M301.900 201.882 C 302.395 201.978,303.205 201.978,303.700 201.882 C 304.195 201.787,303.790 201.709,302.800 201.709 C 301.810 201.709,301.405 201.787,301.900 201.882 M364.075 205.584 C 363.101 206.901,362.908 207.549,363.737 206.720 C 364.304 206.154,365.326 204.400,365.089 204.400 C 365.013 204.400,364.557 204.933,364.075 205.584 M116.200 208.800 C 115.908 209.273,116.299 209.273,117.400 208.800 C 118.171 208.469,118.169 208.455,117.324 208.428 C 116.842 208.413,116.336 208.580,116.200 208.800 M111.600 209.621 C 111.170 209.914,111.454 209.954,112.600 209.762 C 114.584 209.430,114.904 209.198,113.367 209.206 C 112.725 209.209,111.930 209.396,111.600 209.621 M81.600 210.400 L 58.600 210.610 81.400 210.662 C 93.940 210.690,105.280 210.579,106.600 210.415 L 109.000 210.118 106.800 210.154 C 105.590 210.174,94.250 210.285,81.600 210.400 M167.600 214.000 C 167.130 214.660,166.836 215.200,166.946 215.200 C 167.056 215.200,167.530 214.660,168.000 214.000 C 168.470 213.340,168.764 212.800,168.654 212.800 C 168.544 212.800,168.070 213.340,167.600 214.000 M353.903 216.349 C 351.430 218.285,350.546 219.252,352.600 217.775 C 354.992 216.056,356.503 214.796,356.131 214.832 C 355.949 214.850,354.946 215.533,353.903 216.349 M163.223 219.306 C 161.366 221.338,160.451 222.460,161.189 221.800 C 162.578 220.559,163.907 219.142,165.783 216.900 C 167.827 214.458,166.604 215.607,163.223 219.306 M348.300 220.229 C 346.805 221.040,346.896 221.378,348.400 220.600 C 349.060 220.259,349.600 219.894,349.600 219.790 C 349.600 219.532,349.557 219.547,348.300 220.229 M153.094 227.696 C 152.046 228.370,151.266 229.000,151.361 229.094 C 151.456 229.189,152.491 228.621,153.661 227.833 C 156.247 226.092,155.767 225.976,153.094 227.696 M334.816 230.563 C 335.568 231.609,336.356 232.573,336.567 232.703 C 336.778 232.833,336.335 232.084,335.584 231.037 C 334.832 229.991,334.044 229.027,333.833 228.897 C 333.622 228.767,334.065 229.516,334.816 230.563 M148.471 230.378 C 146.167 231.619,145.355 232.217,146.612 231.748 C 148.218 231.150,151.505 229.152,150.780 229.216 C 150.681 229.225,149.642 229.748,148.471 230.378 M141.800 233.417 C 140.040 234.157,138.800 234.771,139.045 234.781 C 139.507 234.801,145.203 232.530,145.542 232.192 C 145.964 231.770,144.849 232.135,141.800 233.417 M251.200 265.167 C 251.200 282.969,251.091 297.819,250.957 298.167 C 250.737 298.742,239.231 298.809,125.257 298.899 L -0.200 298.999 125.158 299.100 C 217.497 299.175,250.659 299.083,251.058 298.752 C 251.506 298.380,251.600 292.640,251.600 265.741 L 251.600 233.180 273.362 233.290 C 285.331 233.351,294.916 233.268,294.662 233.106 C 294.408 232.944,284.525 232.809,272.700 232.806 L 251.200 232.800 251.200 265.167 M339.427 237.000 C 340.800 238.800,341.068 238.803,339.904 237.005 C 339.407 236.238,338.856 235.608,338.680 235.605 C 338.503 235.602,338.840 236.230,339.427 237.000 M298.017 238.163 C 298.691 239.162,299.441 240.102,299.683 240.251 C 299.925 240.401,299.553 239.695,298.857 238.682 C 298.160 237.669,297.410 236.730,297.191 236.594 C 296.971 236.459,297.343 237.165,298.017 238.163 M126.600 238.000 L 125.800 238.344 126.600 238.366 C 127.040 238.378,127.670 238.213,128.000 238.000 C 128.795 237.486,127.796 237.486,126.600 238.000 M122.600 238.800 L 121.800 239.144 122.600 239.166 C 123.040 239.178,123.670 239.013,124.000 238.800 C 124.795 238.286,123.796 238.286,122.600 238.800 M117.400 239.600 L 115.800 239.886 117.200 239.903 C 117.970 239.913,119.050 239.776,119.600 239.600 C 120.885 239.188,119.699 239.188,117.400 239.600 M110.000 240.400 L 108.200 240.680 110.200 240.712 C 111.300 240.729,112.560 240.589,113.000 240.400 C 114.009 239.966,112.788 239.966,110.000 240.400 M79.000 241.200 L 58.600 241.411 80.000 241.482 C 91.770 241.522,102.120 241.405,103.000 241.223 C 104.434 240.926,104.331 240.897,102.000 240.940 C 100.570 240.967,90.220 241.084,79.000 241.200 M342.802 241.433 C 342.803 241.635,343.268 242.340,343.835 243.000 L 344.866 244.200 343.963 242.800 C 342.804 241.004,342.800 240.999,342.802 241.433 M302.215 244.000 C 302.799 245.052,305.617 248.800,305.825 248.800 C 305.935 248.800,305.274 247.765,304.355 246.500 C 302.588 244.067,301.634 242.952,302.215 244.000 M346.067 246.233 C 347.891 248.774,348.349 248.924,346.732 246.450 C 345.999 245.331,345.254 244.411,345.075 244.407 C 344.896 244.403,345.343 245.225,346.067 246.233 M349.200 250.183 C 349.200 250.573,352.764 255.600,353.040 255.600 C 353.189 255.600,350.680 251.840,349.325 250.033 C 349.256 249.942,349.200 250.009,349.200 250.183 M307.637 251.600 C 308.796 253.396,308.800 253.401,308.798 252.967 C 308.797 252.765,308.332 252.060,307.765 251.400 L 306.734 250.200 307.637 251.600 M313.375 259.732 C 313.991 260.539,314.576 261.200,314.675 261.200 C 314.953 261.200,313.221 258.860,312.709 258.544 C 312.459 258.389,312.759 258.924,313.375 259.732 M318.627 267.170 C 319.842 268.932,321.003 270.478,321.208 270.605 C 321.412 270.731,320.587 269.393,319.373 267.630 C 318.158 265.868,316.997 264.322,316.792 264.195 C 316.588 264.069,317.413 265.407,318.627 267.170 M362.467 269.033 C 364.291 271.574,364.749 271.724,363.132 269.250 C 362.399 268.131,361.654 267.211,361.475 267.207 C 361.296 267.203,361.743 268.025,362.467 269.033 M322.897 273.193 C 323.614 274.289,324.335 275.189,324.499 275.193 C 324.664 275.197,324.152 274.300,323.362 273.200 C 321.508 270.620,321.212 270.615,322.897 273.193 M365.918 273.700 C 366.767 274.855,367.667 276.160,367.919 276.600 C 368.170 277.040,368.381 277.211,368.388 276.980 C 368.401 276.521,364.920 271.600,364.583 271.600 C 364.468 271.600,365.069 272.545,365.918 273.700 M370.816 280.563 C 371.568 281.609,372.356 282.573,372.567 282.703 C 372.778 282.833,372.335 282.084,371.584 281.037 C 370.832 279.991,370.044 279.027,369.833 278.897 C 369.622 278.767,370.065 279.516,370.816 280.563 M374.937 286.094 C 375.192 286.256,380.980 286.353,387.800 286.312 C 394.620 286.270,398.670 286.184,396.800 286.121 C 388.540 285.844,374.515 285.826,374.937 286.094 M333.267 287.833 C 335.086 290.367,335.558 290.532,333.933 288.066 C 333.200 286.953,332.454 286.034,332.275 286.022 C 332.096 286.010,332.543 286.825,333.267 287.833 M336.412 291.764 C 336.395 292.279,339.734 297.172,340.113 297.187 C 340.285 297.194,339.731 296.255,338.882 295.100 C 338.033 293.945,337.133 292.640,336.881 292.200 C 336.630 291.760,336.419 291.564,336.412 291.764 M340.962 298.300 L 341.724 299.200 370.962 299.103 L 400.200 299.005 371.029 298.900 C 343.963 298.802,341.797 298.744,341.029 298.097 C 340.201 297.401,340.201 297.401,340.962 298.300 " stroke="none" fill="#4a4a4a" fill-rule="evenodd"></path><path id="path4" d="M25.867 102.267 C 25.720 102.413,25.600 143.645,25.600 193.893 C 25.600 256.105,25.468 285.499,25.186 286.026 C 24.952 286.463,24.932 286.800,25.139 286.800 C 25.944 286.800,25.989 281.864,25.995 193.702 L 26.000 102.404 61.300 102.300 L 96.600 102.196 61.367 102.098 C 41.988 102.044,26.013 102.120,25.867 102.267 M218.262 102.300 C 218.094 102.572,245.365 102.569,281.000 102.294 C 288.480 102.236,277.466 102.147,256.524 102.095 C 235.582 102.043,218.364 102.135,218.262 102.300 M106.400 102.799 C 108.250 103.150,111.464 103.319,111.167 103.049 C 111.075 102.965,109.560 102.798,107.800 102.677 C 105.394 102.512,105.047 102.542,106.400 102.799 M304.800 102.817 C 306.010 102.984,307.810 103.113,308.800 103.104 L 310.600 103.087 308.400 102.783 C 307.190 102.616,305.390 102.487,304.400 102.496 L 302.600 102.513 304.800 102.817 M114.800 103.600 C 115.350 103.776,116.340 103.917,117.000 103.913 L 118.200 103.905 117.000 103.600 C 116.340 103.432,115.350 103.291,114.800 103.287 L 113.800 103.280 114.800 103.600 M314.200 103.580 C 315.434 103.915,318.264 104.118,317.967 103.850 C 317.875 103.768,316.720 103.600,315.400 103.477 C 313.822 103.330,313.411 103.365,314.200 103.580 M121.000 104.400 C 121.440 104.589,122.160 104.738,122.600 104.732 C 123.243 104.723,123.204 104.657,122.400 104.400 C 121.032 103.962,119.981 103.962,121.000 104.400 M320.400 104.400 C 320.730 104.613,321.450 104.773,322.000 104.754 L 323.000 104.720 322.000 104.400 C 320.458 103.906,319.636 103.906,320.400 104.400 M125.000 105.200 C 125.440 105.389,126.160 105.538,126.600 105.532 C 127.243 105.523,127.204 105.457,126.400 105.200 C 125.032 104.762,123.981 104.762,125.000 105.200 M325.000 105.200 C 325.440 105.389,326.070 105.544,326.400 105.544 C 326.778 105.544,326.704 105.417,326.200 105.200 C 325.760 105.011,325.130 104.856,324.800 104.856 C 324.422 104.856,324.496 104.983,325.000 105.200 M328.400 105.982 C 328.730 106.205,329.345 106.391,329.767 106.394 C 330.790 106.402,330.471 106.173,329.000 105.844 C 328.124 105.648,327.962 105.685,328.400 105.982 M346.800 112.184 C 346.800 112.294,347.520 112.751,348.400 113.200 C 349.280 113.649,350.000 113.926,350.000 113.816 C 350.000 113.706,349.280 113.249,348.400 112.800 C 347.520 112.351,346.800 112.074,346.800 112.184 M148.000 112.820 C 149.387 113.761,150.178 114.035,149.200 113.236 C 148.650 112.786,148.020 112.417,147.800 112.415 C 147.580 112.413,147.670 112.596,148.000 112.820 M151.200 114.524 C 151.200 114.617,151.965 115.198,152.900 115.815 C 153.835 116.432,154.389 116.680,154.131 116.368 C 153.634 115.767,151.200 114.236,151.200 114.524 M356.171 118.297 C 356.815 119.009,357.430 119.504,357.538 119.396 C 357.645 119.288,357.658 119.155,357.567 119.100 C 357.475 119.045,356.860 118.551,356.200 118.001 L 355.000 117.003 356.171 118.297 M157.641 119.043 C 157.663 119.240,158.563 120.190,159.641 121.157 C 160.718 122.123,161.582 122.753,161.559 122.557 C 161.537 122.360,160.637 121.410,159.559 120.443 C 158.482 119.477,157.618 118.847,157.641 119.043 M358.000 119.725 C 358.000 119.794,358.585 120.379,359.300 121.025 L 360.600 122.200 359.425 120.900 C 358.330 119.688,358.000 119.416,358.000 119.725 M361.600 123.800 C 362.346 124.570,363.047 125.200,363.157 125.200 C 363.267 125.200,362.746 124.570,362.000 123.800 C 361.254 123.030,360.553 122.400,360.443 122.400 C 360.333 122.400,360.854 123.030,361.600 123.800 M163.234 124.647 C 163.765 125.333,164.280 125.823,164.379 125.735 C 164.477 125.647,164.043 125.086,163.413 124.488 L 162.269 123.400 163.234 124.647 M97.233 132.148 C 97.325 132.229,99.380 132.393,101.800 132.511 C 104.758 132.656,105.544 132.619,104.200 132.398 C 102.170 132.065,96.928 131.877,97.233 132.148 M297.633 132.145 C 297.725 132.225,300.050 132.383,302.800 132.497 C 305.968 132.628,306.994 132.590,305.600 132.392 C 303.342 132.071,297.335 131.885,297.633 132.145 M367.878 133.395 C 368.244 134.162,368.614 134.719,368.701 134.632 C 368.884 134.449,367.670 132.000,367.396 132.000 C 367.295 132.000,367.512 132.628,367.878 133.395 M109.400 133.200 C 110.060 133.368,111.050 133.505,111.600 133.505 C 112.492 133.505,112.470 133.472,111.400 133.200 C 110.740 133.032,109.750 132.895,109.200 132.895 C 108.308 132.895,108.330 132.928,109.400 133.200 M114.200 134.000 C 114.640 134.189,115.360 134.338,115.800 134.332 C 116.443 134.323,116.404 134.257,115.600 134.000 C 114.232 133.562,113.181 133.562,114.200 134.000 M315.800 134.000 C 316.240 134.189,316.960 134.338,317.400 134.332 C 318.043 134.323,318.004 134.257,317.200 134.000 C 315.832 133.562,314.781 133.562,315.800 134.000 M327.976 138.014 C 329.172 138.673,330.519 139.525,330.969 139.906 C 331.753 140.572,331.763 140.570,331.213 139.862 C 330.602 139.076,326.871 136.805,326.200 136.811 C 325.980 136.813,326.779 137.354,327.976 138.014 M126.833 137.751 C 127.242 138.121,130.400 139.595,130.400 139.416 C 130.400 139.189,127.381 137.600,126.949 137.600 C 126.794 137.600,126.742 137.668,126.833 137.751 M333.861 142.649 C 334.927 143.995,336.028 145.435,336.306 145.849 C 336.584 146.262,336.545 146.060,336.220 145.400 C 335.895 144.740,334.795 143.300,333.775 142.200 L 331.922 140.200 333.861 142.649 M174.806 145.833 C 174.809 146.255,174.995 146.870,175.218 147.200 C 175.515 147.638,175.552 147.476,175.356 146.600 C 175.027 145.129,174.798 144.810,174.806 145.833 M373.293 151.200 C 373.293 151.970,373.375 152.285,373.476 151.900 C 373.576 151.515,373.576 150.885,373.476 150.500 C 373.375 150.115,373.293 150.430,373.293 151.200 M176.406 152.433 C 176.409 152.965,176.589 153.670,176.806 154.000 C 177.082 154.422,177.123 154.185,176.942 153.200 C 176.625 151.475,176.398 151.149,176.406 152.433 M339.444 154.200 C 339.773 155.671,340.002 155.990,339.994 154.967 C 339.991 154.545,339.805 153.930,339.582 153.600 C 339.285 153.162,339.248 153.324,339.444 154.200 M374.128 158.000 C 374.128 159.430,374.201 160.015,374.289 159.300 C 374.378 158.585,374.378 157.415,374.289 156.700 C 374.201 155.985,374.128 156.570,374.128 158.000 M177.293 157.000 C 177.294 157.660,177.432 158.740,177.600 159.400 C 178.023 161.063,178.042 159.426,177.623 157.400 C 177.345 156.055,177.292 155.991,177.293 157.000 M340.282 159.600 C 340.408 161.030,340.577 162.275,340.656 162.367 C 340.961 162.720,340.726 158.558,340.398 157.800 C 340.184 157.305,340.140 157.990,340.282 159.600 M374.546 165.400 C 374.547 167.600,374.614 168.449,374.695 167.287 C 374.776 166.124,374.776 164.324,374.693 163.287 C 374.611 162.249,374.545 163.200,374.546 165.400 M144.540 165.600 C 144.540 167.470,144.609 168.235,144.693 167.300 C 144.777 166.365,144.777 164.835,144.693 163.900 C 144.609 162.965,144.540 163.730,144.540 165.600 M178.197 172.000 C 178.200 180.810,178.234 181.324,178.539 177.091 C 178.725 174.500,178.724 170.090,178.536 167.291 C 178.219 162.558,178.195 162.889,178.197 172.000 M340.465 170.400 C 340.425 171.170,340.304 172.520,340.197 173.400 L 340.003 175.000 340.423 173.662 C 340.654 172.927,340.774 171.577,340.691 170.662 C 340.548 169.091,340.536 169.077,340.465 170.400 M144.481 173.050 C 144.437 174.838,144.311 176.908,144.201 177.650 L 144.003 179.000 144.417 177.683 C 144.645 176.958,144.771 174.888,144.697 173.083 L 144.563 169.800 144.481 173.050 M374.137 173.000 C 374.139 174.760,374.209 175.430,374.293 174.489 C 374.378 173.549,374.377 172.109,374.291 171.289 C 374.205 170.470,374.136 171.240,374.137 173.000 M339.646 176.867 C 339.621 177.234,339.496 177.864,339.370 178.267 C 339.152 178.962,339.163 178.963,339.597 178.287 C 339.848 177.896,339.973 177.266,339.873 176.887 C 339.711 176.268,339.688 176.266,339.646 176.867 M373.301 180.600 C 373.305 181.480,373.387 181.793,373.483 181.295 C 373.579 180.798,373.575 180.078,373.475 179.695 C 373.375 179.313,373.296 179.720,373.301 180.600 M143.693 181.200 C 143.693 181.970,143.775 182.285,143.876 181.900 C 143.976 181.515,143.976 180.885,143.876 180.500 C 143.775 180.115,143.693 180.430,143.693 181.200 M177.382 185.782 C 177.229 186.802,177.194 187.727,177.304 187.837 C 177.414 187.947,177.629 187.202,177.782 186.182 C 177.935 185.161,177.970 184.237,177.860 184.127 C 177.750 184.017,177.535 184.761,177.382 185.782 M371.093 189.893 C 370.720 191.133,370.481 192.214,370.563 192.296 C 370.645 192.378,371.027 191.441,371.413 190.213 C 371.799 188.986,372.038 187.905,371.944 187.811 C 371.850 187.716,371.467 188.654,371.093 189.893 M332.997 191.100 C 331.921 192.365,331.456 193.040,331.964 192.600 C 332.929 191.764,335.383 188.800,335.110 188.800 C 335.023 188.800,334.072 189.835,332.997 191.100 M176.656 190.484 C 176.521 190.988,176.427 191.760,176.446 192.200 C 176.465 192.640,176.645 192.298,176.846 191.440 C 177.236 189.778,177.070 188.940,176.656 190.484 M329.185 194.829 L 327.800 196.058 329.300 194.981 C 330.626 194.030,331.057 193.600,330.685 193.600 C 330.622 193.600,329.947 194.153,329.185 194.829 M323.800 197.814 C 322.795 198.298,322.763 198.353,323.600 198.151 C 324.150 198.019,324.771 197.750,324.980 197.555 C 325.498 197.071,325.214 197.133,323.800 197.814 M133.978 201.100 L 132.600 202.600 134.100 201.222 C 134.925 200.463,135.600 199.788,135.600 199.722 C 135.600 199.416,135.262 199.704,133.978 201.100 M315.400 200.400 C 314.896 200.617,314.822 200.744,315.200 200.744 C 315.530 200.744,316.160 200.589,316.600 200.400 C 317.104 200.183,317.178 200.056,316.800 200.056 C 316.470 200.056,315.840 200.211,315.400 200.400 M366.352 201.300 C 366.090 201.795,365.615 202.650,365.296 203.200 C 364.739 204.159,364.743 204.167,365.388 203.400 C 366.186 202.452,367.305 200.400,367.024 200.400 C 366.916 200.400,366.614 200.805,366.352 201.300 M310.800 201.200 C 310.008 201.454,309.967 201.520,310.600 201.520 C 311.040 201.520,311.850 201.376,312.400 201.200 C 313.192 200.946,313.233 200.880,312.600 200.880 C 312.160 200.880,311.350 201.024,310.800 201.200 M306.100 201.876 C 306.485 201.976,307.115 201.976,307.500 201.876 C 307.885 201.775,307.570 201.693,306.800 201.693 C 306.030 201.693,305.715 201.775,306.100 201.876 M251.143 202.503 C 251.310 202.670,261.336 202.760,273.423 202.703 L 295.400 202.600 273.120 202.400 C 260.866 202.290,250.976 202.337,251.143 202.503 M302.700 202.282 C 303.195 202.378,304.005 202.378,304.500 202.282 C 304.995 202.187,304.590 202.109,303.600 202.109 C 302.610 202.109,302.205 202.187,302.700 202.282 M129.672 204.243 C 128.722 204.812,128.031 205.364,128.136 205.469 C 128.320 205.653,131.600 203.644,131.600 203.347 C 131.600 203.105,131.472 203.165,129.672 204.243 M361.544 208.300 C 360.393 209.689,359.906 210.400,360.104 210.400 C 360.214 210.400,360.786 209.770,361.373 209.000 C 362.463 207.571,362.595 207.032,361.544 208.300 M119.600 208.400 C 118.776 208.664,118.741 208.726,119.400 208.754 C 119.840 208.773,120.470 208.613,120.800 208.400 C 121.501 207.947,121.014 207.947,119.600 208.400 M116.200 209.200 C 115.093 209.482,115.077 209.509,116.000 209.547 C 116.550 209.569,117.270 209.413,117.600 209.200 C 118.281 208.760,117.929 208.760,116.200 209.200 M169.453 210.500 L 168.733 211.800 169.558 210.800 C 170.289 209.913,170.614 209.200,170.286 209.200 C 170.224 209.200,169.849 209.785,169.453 210.500 M111.600 210.000 C 110.233 210.288,110.228 210.295,111.400 210.319 C 112.060 210.333,112.960 210.189,113.400 210.000 C 114.362 209.587,113.564 209.587,111.600 210.000 M58.503 210.400 C 58.646 210.925,61.627 211.001,82.233 211.005 L 105.800 211.010 82.422 210.902 C 64.357 210.818,58.963 210.681,58.691 210.297 C 58.432 209.932,58.383 209.959,58.503 210.400 M106.500 210.676 C 106.885 210.776,107.515 210.776,107.900 210.676 C 108.285 210.575,107.970 210.493,107.200 210.493 C 106.430 210.493,106.115 210.575,106.500 210.676 M165.802 215.700 C 164.742 217.075,164.284 217.840,164.784 217.400 C 165.669 216.622,168.193 213.200,167.883 213.200 C 167.798 213.200,166.861 214.325,165.802 215.700 M354.239 215.625 C 353.161 216.504,351.811 217.590,351.239 218.041 C 350.668 218.491,350.470 218.726,350.800 218.563 C 351.561 218.186,356.400 214.387,356.400 214.166 C 356.400 213.885,356.260 213.979,354.239 215.625 M161.535 220.608 C 160.290 221.814,159.396 222.800,159.549 222.800 C 159.702 222.800,160.805 221.810,162.000 220.600 C 164.809 217.756,164.476 217.762,161.535 220.608 M348.500 219.646 C 347.137 220.519,346.695 221.106,347.900 220.443 C 348.818 219.939,350.256 218.827,350.000 218.819 C 349.890 218.816,349.215 219.188,348.500 219.646 M154.687 226.168 C 152.326 227.802,151.764 228.375,153.506 227.372 C 154.850 226.599,157.156 224.823,156.800 224.836 C 156.690 224.841,155.739 225.440,154.687 226.168 M332.538 227.017 C 332.408 227.357,332.413 227.747,332.551 227.884 C 332.688 228.021,332.800 227.847,332.800 227.496 C 332.800 227.145,333.115 226.776,333.500 226.676 C 334.156 226.504,334.155 226.490,333.487 226.446 C 333.096 226.421,332.668 226.678,332.538 227.017 M335.245 231.900 C 337.012 234.333,337.966 235.448,337.385 234.400 C 336.801 233.348,333.983 229.600,333.775 229.600 C 333.665 229.600,334.326 230.635,335.245 231.900 M251.300 232.265 C 249.728 232.899,252.818 232.990,272.651 232.893 C 284.669 232.834,294.712 232.924,294.970 233.093 C 295.227 233.262,295.094 233.085,294.675 232.700 C 293.933 232.020,252.926 231.609,251.300 232.265 M134.400 235.600 C 133.576 235.864,133.541 235.926,134.200 235.954 C 134.640 235.973,135.270 235.813,135.600 235.600 C 136.301 235.147,135.814 235.147,134.400 235.600 M298.383 237.975 C 299.270 239.282,300.179 240.464,300.404 240.602 C 300.628 240.741,299.985 239.672,298.975 238.227 C 297.965 236.782,297.055 235.600,296.954 235.600 C 296.853 235.600,297.496 236.669,298.383 237.975 M338.837 236.800 C 339.996 238.596,340.000 238.601,339.998 238.167 C 339.997 237.965,339.532 237.260,338.965 236.600 L 337.934 235.400 338.837 236.800 M128.400 237.200 C 127.576 237.464,127.541 237.526,128.200 237.554 C 128.640 237.573,129.270 237.413,129.600 237.200 C 130.301 236.747,129.814 236.747,128.400 237.200 M119.105 239.083 C 119.602 239.179,120.322 239.175,120.705 239.075 C 121.087 238.975,120.680 238.896,119.800 238.901 C 118.920 238.905,118.607 238.987,119.105 239.083 M112.105 239.887 C 112.714 239.979,113.614 239.977,114.105 239.882 C 114.597 239.787,114.100 239.711,113.000 239.714 C 111.900 239.717,111.497 239.795,112.105 239.887 M108.705 240.283 C 109.202 240.379,109.922 240.375,110.305 240.275 C 110.687 240.175,110.280 240.096,109.400 240.101 C 108.520 240.105,108.207 240.187,108.705 240.283 M98.500 240.697 C 99.985 240.774,102.415 240.774,103.900 240.697 C 105.385 240.620,104.170 240.557,101.200 240.557 C 98.230 240.557,97.015 240.620,98.500 240.697 M58.661 241.100 C 58.493 241.373,71.839 241.367,88.200 241.088 C 91.720 241.028,86.556 240.939,76.724 240.889 C 66.892 240.840,58.764 240.935,58.661 241.100 M308.608 252.358 C 309.415 253.481,310.157 254.400,310.257 254.400 C 310.532 254.400,308.052 250.880,307.566 250.579 C 307.332 250.435,307.801 251.235,308.608 252.358 M350.175 252.532 C 350.791 253.339,351.376 254.000,351.475 254.000 C 351.753 254.000,350.021 251.660,349.509 251.344 C 349.259 251.189,349.559 251.724,350.175 252.532 M351.820 254.800 C 352.428 255.881,356.427 261.200,356.631 261.200 C 356.741 261.200,355.811 259.805,354.564 258.100 C 352.278 254.975,351.168 253.640,351.820 254.800 M313.983 259.975 C 314.870 261.282,315.779 262.464,316.004 262.602 C 316.228 262.741,315.585 261.672,314.575 260.227 C 313.565 258.782,312.655 257.600,312.554 257.600 C 312.453 257.600,313.096 258.669,313.983 259.975 M358.096 263.568 C 358.812 264.650,359.461 265.473,359.538 265.396 C 359.700 265.233,357.250 261.600,356.978 261.600 C 356.877 261.600,357.380 262.485,358.096 263.568 M318.799 266.752 C 319.760 268.122,320.727 269.355,320.947 269.491 C 321.168 269.627,320.562 268.618,319.601 267.248 C 318.640 265.878,317.673 264.645,317.453 264.509 C 317.232 264.373,317.838 265.382,318.799 266.752 M362.391 269.588 C 362.857 270.241,363.442 270.902,363.691 271.056 C 363.941 271.211,363.641 270.676,363.025 269.868 C 361.688 268.115,361.184 267.892,362.391 269.588 M323.775 273.732 C 324.391 274.539,324.976 275.200,325.075 275.200 C 325.353 275.200,323.621 272.860,323.109 272.544 C 322.859 272.389,323.159 272.924,323.775 273.732 M366.575 275.332 C 367.191 276.139,367.776 276.800,367.875 276.800 C 368.153 276.800,366.421 274.460,365.909 274.144 C 365.659 273.989,365.959 274.524,366.575 275.332 M328.400 280.200 C 329.081 281.190,329.728 282.000,329.838 282.000 C 329.948 282.000,329.481 281.190,328.800 280.200 C 328.119 279.210,327.472 278.400,327.362 278.400 C 327.252 278.400,327.719 279.210,328.400 280.200 M370.801 281.200 C 371.951 282.850,373.168 284.470,373.505 284.800 C 374.363 285.642,370.443 279.979,369.490 279.000 C 369.061 278.560,369.651 279.550,370.801 281.200 M333.186 286.980 C 333.859 287.958,334.601 288.877,334.834 289.021 C 335.068 289.165,334.599 288.365,333.792 287.242 C 331.990 284.734,331.493 284.519,333.186 286.980 M338.173 294.018 C 340.431 297.174,341.235 297.856,339.188 294.878 C 338.234 293.492,337.264 292.240,337.033 292.097 C 336.801 291.954,337.314 292.818,338.173 294.018 " stroke="none" fill="#848484" fill-rule="evenodd"></path></g></svg>